<?xml version="1.0" encoding="UTF-8" standalone="no"?>
<!-- Created with Inkscape (http://www.inkscape.org/) -->

<svg
   width="621mm"
   height="265mm"
   viewBox="0 0 621 265"
   version="1.1"
   id="svg1"
   xml:space="preserve"
   xmlns:xlink="http://www.w3.org/1999/xlink"
   xmlns="http://www.w3.org/2000/svg"
   xmlns:svg="http://www.w3.org/2000/svg"><defs
     id="defs1"><linearGradient
       xlink:href="#linearGradient712"
       id="linearGradient730"
       x1="-0.15415122"
       y1="92.55291"
       x2="269.80704"
       y2="92.55291"
       gradientUnits="userSpaceOnUse"
       gradientTransform="translate(0.74835469,-318.05072)" /><linearGradient
       id="linearGradient712"><stop
         style="stop-color:#24334a;stop-opacity:1;"
         offset="0"
         id="stop713" /><stop
         style="stop-color:#d0e2ee;stop-opacity:1;"
         offset="1"
         id="stop712" /></linearGradient><linearGradient
       xlink:href="#linearGradient712"
       id="linearGradient731"
       x1="33.463615"
       y1="120.50604"
       x2="267.41031"
       y2="120.50604"
       gradientUnits="userSpaceOnUse"
       gradientTransform="translate(0.74835469,-318.05072)" /><linearGradient
       xlink:href="#linearGradient712"
       id="linearGradient260"
       x1="-0.15794826"
       y1="154.29962"
       x2="205.5779"
       y2="154.29962"
       gradientUnits="userSpaceOnUse"
       gradientTransform="translate(0.74835469,-318.05072)" /><linearGradient
       xlink:href="#linearGradient267"
       id="linearGradient268"
       x1="80.064674"
       y1="108.43345"
       x2="209.01825"
       y2="108.43345"
       gradientUnits="userSpaceOnUse"
       gradientTransform="translate(-0.30997861,-309.58405)" /><linearGradient
       id="linearGradient267"><stop
         style="stop-color:#3b4761;stop-opacity:1;"
         offset="0"
         id="stop267" /><stop
         style="stop-color:#ceddf0;stop-opacity:1;"
         offset="1"
         id="stop268" /></linearGradient><linearGradient
       xlink:href="#linearGradient712"
       id="linearGradient266"
       x1="-0.23826872"
       y1="132.93555"
       x2="207.99019"
       y2="132.93555"
       gradientUnits="userSpaceOnUse"
       gradientTransform="translate(0.74835469,-318.05072)" /><linearGradient
       xlink:href="#linearGradient712"
       id="linearGradient265"
       x1="-0.061345641"
       y1="135.05865"
       x2="207.72481"
       y2="135.05865"
       gradientUnits="userSpaceOnUse"
       gradientTransform="translate(0.74835469,-318.05072)" /><linearGradient
       xlink:href="#linearGradient712"
       id="linearGradient264"
       x1="-0.28249949"
       y1="137.42503"
       x2="205.4248"
       y2="137.42503"
       gradientUnits="userSpaceOnUse"
       gradientTransform="translate(0.74835469,-318.05072)" /><linearGradient
       xlink:href="#linearGradient712"
       id="linearGradient262"
       x1="-0.10557641"
       y1="139.68076"
       x2="207.68057"
       y2="139.68076"
       gradientUnits="userSpaceOnUse"
       gradientTransform="translate(0.74835469,-318.05072)" /><linearGradient
       xlink:href="#linearGradient712"
       id="linearGradient728"
       x1="-0.37632713"
       y1="89.073692"
       x2="267.22211"
       y2="89.073692"
       gradientUnits="userSpaceOnUse"
       gradientTransform="translate(0.74835469,-318.05072)" /><linearGradient
       xlink:href="#linearGradient712"
       id="linearGradient727"
       x1="-0.21994774"
       y1="86.884384"
       x2="269.72418"
       y2="86.884384"
       gradientUnits="userSpaceOnUse"
       gradientTransform="translate(0.74835469,-318.05072)" /><linearGradient
       xlink:href="#linearGradient712"
       id="linearGradient726"
       x1="-0.34505123"
       y1="83.475342"
       x2="269.59906"
       y2="83.475342"
       gradientUnits="userSpaceOnUse"
       gradientTransform="translate(0.74835469,-318.05072)" /><linearGradient
       xlink:href="#linearGradient712"
       id="linearGradient725"
       x1="-0.15739597"
       y1="75.625069"
       x2="267.5036"
       y2="75.625069"
       gradientUnits="userSpaceOnUse"
       gradientTransform="translate(0.74835469,-318.05072)" /><linearGradient
       xlink:href="#linearGradient712"
       id="linearGradient724"
       x1="-0.28249949"
       y1="60.112236"
       x2="270.00565"
       y2="60.112236"
       gradientUnits="userSpaceOnUse"
       gradientTransform="translate(0.74835469,-318.05072)" /><linearGradient
       xlink:href="#linearGradient732"
       id="linearGradient733"
       x1="353.56366"
       y1="49.560577"
       x2="488.72287"
       y2="49.560577"
       gradientUnits="userSpaceOnUse"
       gradientTransform="translate(0.74835469,-318.05072)" /><linearGradient
       id="linearGradient732"><stop
         style="stop-color:#c8d1da;stop-opacity:1;"
         offset="0"
         id="stop732" /><stop
         style="stop-color:#434e5d;stop-opacity:1;"
         offset="1"
         id="stop733" /></linearGradient><linearGradient
       xlink:href="#linearGradient748"
       id="linearGradient737"
       x1="353.63531"
       y1="100.58322"
       x2="621.04608"
       y2="100.58322"
       gradientUnits="userSpaceOnUse"
       gradientTransform="translate(0.74835469,-318.05072)" /><linearGradient
       id="linearGradient748"><stop
         style="stop-color:#c7d0d9;stop-opacity:1;"
         offset="0"
         id="stop747" /><stop
         style="stop-color:#0f2634;stop-opacity:1;"
         offset="1"
         id="stop748" /></linearGradient><linearGradient
       xlink:href="#linearGradient394"
       id="linearGradient738"
       x1="346.37933"
       y1="102.89764"
       x2="620.92102"
       y2="102.89764"
       gradientUnits="userSpaceOnUse"
       gradientTransform="translate(0.79258546,-317.78534)" /><linearGradient
       id="linearGradient394"><stop
         style="stop-color:#c9daea;stop-opacity:1;"
         offset="0"
         id="stop394" /><stop
         style="stop-color:#234657;stop-opacity:1;"
         offset="1"
         id="stop395" /></linearGradient><linearGradient
       xlink:href="#linearGradient394"
       id="linearGradient739"
       x1="348.75629"
       y1="117.47219"
       x2="620.92102"
       y2="117.47219"
       gradientUnits="userSpaceOnUse"
       gradientTransform="translate(0.74835469,-318.05072)" /><linearGradient
       xlink:href="#linearGradient394"
       id="linearGradient740"
       x1="346.37933"
       y1="126.35455"
       x2="620.67078"
       y2="126.35455"
       gradientUnits="userSpaceOnUse"
       gradientTransform="translate(0.74835469,-318.05072)" /><linearGradient
       xlink:href="#linearGradient394"
       id="linearGradient741"
       x1="346.35406"
       y1="161.22112"
       x2="620.61896"
       y2="161.22112"
       gradientUnits="userSpaceOnUse"
       gradientTransform="translate(0.74835469,-318.05072)" /><linearGradient
       xlink:href="#linearGradient394"
       id="linearGradient747"
       gradientUnits="userSpaceOnUse"
       x1="346.44193"
       y1="170.2346"
       x2="620.92102"
       y2="170.2346"
       gradientTransform="translate(0.74835469,-318.05072)" /><linearGradient
       xlink:href="#linearGradient394"
       id="linearGradient742"
       x1="348.75629"
       y1="165.76215"
       x2="620.73334"
       y2="165.76215"
       gradientUnits="userSpaceOnUse"
       gradientTransform="translate(0.74835469,-318.05072)" /><linearGradient
       xlink:href="#linearGradient745"
       id="linearGradient744"
       x1="349.06903"
       y1="143.4938"
       x2="520.65057"
       y2="143.4938"
       gradientUnits="userSpaceOnUse"
       gradientTransform="translate(0.74835469,-318.05072)" /><linearGradient
       id="linearGradient745"><stop
         style="stop-color:#c7d0d9;stop-opacity:1;"
         offset="0"
         id="stop744" /><stop
         style="stop-color:#ddce21;stop-opacity:0;"
         offset="1"
         id="stop745" /></linearGradient><linearGradient
       xlink:href="#linearGradient712"
       id="linearGradient722"
       x1="-0.23826872"
       y1="164.42789"
       x2="266.81711"
       y2="164.42789"
       gradientUnits="userSpaceOnUse"
       gradientTransform="translate(0.74835469,-318.05072)" /><linearGradient
       xlink:href="#linearGradient712"
       id="linearGradient721"
       x1="-0.19403794"
       y1="166.57307"
       x2="269.47095"
       y2="166.57307"
       gradientUnits="userSpaceOnUse"
       gradientTransform="translate(0.74835469,-318.05072)" /><linearGradient
       xlink:href="#linearGradient712"
       id="linearGradient719"
       x1="-0.19403794"
       y1="169.00581"
       x2="274.15942"
       y2="169.00581"
       gradientUnits="userSpaceOnUse"
       gradientTransform="translate(0.74835469,-318.05072)" /><linearGradient
       xlink:href="#linearGradient712"
       id="linearGradient718"
       x1="-0.061345641"
       y1="177.87399"
       x2="271.46133"
       y2="177.87399"
       gradientUnits="userSpaceOnUse"
       gradientTransform="translate(0.74835469,-318.05072)" /><linearGradient
       xlink:href="#linearGradient712"
       id="linearGradient717"
       x1="-0.19403794"
       y1="192.47018"
       x2="274.02673"
       y2="192.47018"
       gradientUnits="userSpaceOnUse"
       gradientTransform="translate(0.74835469,-318.05072)" /><linearGradient
       xlink:href="#linearGradient712"
       id="linearGradient715"
       x1="-0.10557641"
       y1="194.74808"
       x2="266.99399"
       y2="194.74808"
       gradientUnits="userSpaceOnUse"
       gradientTransform="translate(0.74835469,-318.05072)" /><linearGradient
       xlink:href="#linearGradient712"
       id="linearGradient713"
       x1="-0.14980718"
       y1="198.15387"
       x2="266.94983"
       y2="198.15387"
       gradientUnits="userSpaceOnUse"
       gradientTransform="translate(1.0137393,-318.13918)" /><linearGradient
       xlink:href="#linearGradient224"
       id="linearGradient225"
       x1="330.23404"
       y1="225.20464"
       x2="450.71768"
       y2="225.20464"
       gradientUnits="userSpaceOnUse"
       gradientTransform="translate(9.9483551,-325.39303)" /><linearGradient
       id="linearGradient224"><stop
         style="stop-color:#c8d6e6;stop-opacity:1;"
         offset="0"
         id="stop224" /><stop
         style="stop-color:#6e7e8c;stop-opacity:1;"
         offset="1"
         id="stop225" /></linearGradient><linearGradient
       xlink:href="#linearGradient224"
       id="linearGradient227"
       x1="341.95267"
       y1="217.7205"
       x2="464.60419"
       y2="217.7205"
       gradientUnits="userSpaceOnUse"
       gradientTransform="translate(0.74835469,-318.05072)" /></defs><g
     id="layer1"><g
       id="g778"
       transform="translate(-0.37202721,318.51018)"><path
         style="fill:none;fill-opacity:1;fill-rule:nonzero;stroke:url(#linearGradient730);stroke-width:0.441;stroke-linecap:round;stroke-linejoin:round;stroke-dasharray:none;stroke-opacity:1"
         d="m 270.3349,-205.30649 h -12.47309 l -2.56539,2.3 -9.39903,-0.0663 -11.85385,-11.23461 -4.48942,0.11057 -4.8875,-4.48942 0.0221,-4.64423 -4.68847,-4.33461 -28.50673,-0.1327 -2.43269,-2.14519 -19.06346,-0.0663 -9.28846,-8.97884 h -4.66635 l -4.86538,-4.6 -0.0442,-2.38846 -2.41058,-2.0125 -14.30865,0.11057 -4.62212,4.24616 -9.55385,0.0442 -4.57788,-4.26826 -4.71058,-0.0663 -12.119231,11.16822 -9.35481,-0.11057 -12.229806,11.32307 -30.740384,-0.13269 -4.710578,-4.29038 -9.86346,-0.0442 -6.877886,6.50193 -21.2528847,-0.0442 -2.98557681,-2.3"
         id="path263" /><path
         style="fill:none;fill-opacity:1;fill-rule:nonzero;stroke:url(#linearGradient731);stroke-width:0.441;stroke-linecap:round;stroke-linejoin:round;stroke-dasharray:none;stroke-opacity:1"
         d="m 267.93817,-203.04932 h -10.25849 l -2.09549,2.15803 -12.19759,0.0313 -11.47825,-10.94656 -4.535,-0.0938 -5.03542,-4.59755 0.12511,-2.28314 -7.25601,-6.88069 -45.00598,0.0626 -7.1309,6.72431 -7.256,0.15638 -4.59756,4.37863 -38.03146,0.0938 -9.69552,8.8198 -16.388561,0.0626 -38.344223,35.87343 -9.288936,0.0626 -4.941589,-4.69139 -0.09383,-3.8782"
         id="path264" /><path
         style="fill:none;fill-opacity:1;fill-rule:nonzero;stroke:url(#linearGradient260);stroke-width:0.441;stroke-linecap:round;stroke-linejoin:round;stroke-dasharray:none;stroke-opacity:1"
         d="m 0.81090644,-164.92403 14.13669656,-0.0625 17.139179,15.98197 26.303015,-0.15638 26.209182,-24.73922 19.047001,0.0313 11.97867,11.19677 21.33014,-0.0938 7.03708,-6.59921 9.35148,-0.0938 9.7268,-9.03873 43.0356,0.0938"
         id="path266" /><path
         style="fill:none;fill-opacity:1;fill-rule:nonzero;stroke:url(#linearGradient268);stroke-width:0.441;stroke-linecap:round;stroke-linejoin:round;stroke-dasharray:none"
         d="m 208.3001,-203.12092 h -52.35581 l -4.81649,-4.66011 h -42.62902 l -4.87903,4.69139 -16.357274,-0.12513 -4.753933,4.34735 -0.156379,1.87655 -2.376966,2.4708"
         id="path284" /><path
         style="fill:#ffffff;stroke:#ceddf0;stroke-width:0.565;stroke-linecap:round;stroke-linejoin:round;stroke-dasharray:none;stroke-opacity:1"
         d="M 205.97912,-200.92764 H 149.58489"
         id="path1" /><path
         style="fill:none;stroke:url(#linearGradient266);stroke-width:0.564999;stroke-linecap:round;stroke-linejoin:round;stroke-dasharray:none;stroke-opacity:1"
         d="m 208.45604,-189.56033 -40.47115,0.0442 -7.82885,-6.98847 -8.71346,0.1327 -7.20962,-6.76731 h -28.6173 l -12.03077,11.27884 H 77.665663 l -26.759616,24.76923 -13.75577,-0.17692 -7.563461,-6.67885 -28.79423054,0.0442"
         id="path6" /><path
         style="fill:none;stroke:url(#linearGradient265);stroke-width:0.564999;stroke-linecap:round;stroke-linejoin:round;stroke-dasharray:none;stroke-opacity:1"
         d="M 0.96950854,-171.55841 H 29.542586 l 7.563461,6.67884 13.932693,-0.13269 26.715384,-24.725 25.653846,0.13269 12.29615,-11.27884 28.26346,-0.22116 7.12115,6.94423 2.38847,-0.0442 9.81923,9.2 44.89423,-0.13269"
         id="path7" /><path
         style="fill:none;stroke:url(#linearGradient264);stroke-width:0.564999;stroke-linecap:round;stroke-linejoin:round;stroke-dasharray:none;stroke-opacity:1"
         d="m 205.89066,-182.92572 -42.81539,0.0885 -9.50961,-8.93462 h -9.81923 l -6.9,-6.59038 -21.23077,-0.26538 -12.075,11.23461 H 77.754124 l -26.582692,24.76923 -14.109616,-0.0885 -7.696154,-6.85577 H 0.74835469"
         id="path9" /><path
         style="fill:none;stroke:url(#linearGradient262);stroke-width:0.564999;stroke-linecap:round;stroke-linejoin:round;stroke-dasharray:none;stroke-opacity:1"
         d="m 0.92527777,-167.2238 28.30769223,0.0442 7.696155,6.94423 14.330767,-0.22115 26.582693,-24.76923 25.698075,0.13269 12.11923,-11.36731 2.60961,-0.0442 6.94424,6.36924 4.51153,-0.0442 9.3327,9.46539 69.08846,0.0885"
         id="path10" /><path
         style="fill:none;fill-opacity:1;stroke:url(#linearGradient728);stroke-width:0.564999;stroke-linecap:round;stroke-linejoin:round;stroke-dasharray:none;stroke-opacity:1"
         d="m 267.68795,-209.77364 h -7.53748 l -2.22059,2.22059 -12.00993,-0.0313 -9.22639,-8.75725 -4.75393,-0.0938 -4.97286,-4.59755 -0.12511,-4.78521 -4.44117,-4.15969 h -28.49233 l -2.25186,-2.15804 -18.89063,0.15638 -9.75807,-9.22638 -5.12925,-0.0625 -4.31607,-4.37863 0.0626,-2.43951 -2.87738,-2.15804 -16.45112,-0.15638 -1.87655,2.15804 -2.50207,0.0938 -2.56462,2.22058 -4.72266,-0.0313 -4.78521,-4.15969 -6.75559,-0.15638 -12.041244,11.00911 -9.570418,0.12511 -12.260144,11.29059 -28.523599,-0.1251 -4.4099,-4.25352 H 32.024232 l -7.287279,6.4741 -18.8906302,-0.0626 -5.19179574,-4.47245"
         id="path191" /><path
         style="fill:none;fill-opacity:1;stroke:url(#linearGradient727);stroke-width:0.564999;stroke-linecap:round;stroke-linejoin:round;stroke-dasharray:none;stroke-opacity:1"
         d="m 0.81090644,-234.70051 50.54181756,-0.0625 4.472451,4.66011 21.017388,-0.18766 15.106248,-13.38608 9.195109,0.15639 9.977,-9.13256 42.1286,0.1251 19.17212,18.04618 h 49.79119 l 26.08409,24.80177 9.38276,-0.0626 2.50207,-2.34569 10.00829,0.0313"
         id="path192" /><path
         style="fill:none;fill-opacity:1;stroke:url(#linearGradient726);stroke-width:0.564999;stroke-linecap:round;stroke-linejoin:round;stroke-dasharray:none;stroke-opacity:1"
         d="m 270.06492,-214.27736 -16.98279,0.0626 -21.48653,-20.4857 -2.28314,0.12511 -2.43952,-2.15804 h -54.20109 l -19.3285,-18.04623 -116.471356,-0.15638 -9.570418,8.91363 -19.0470107,-0.0313 -4.6913816,4.535 H 0.68580294"
         id="path193" /><path
         style="fill:none;fill-opacity:1;stroke:url(#linearGradient725);stroke-width:0.564999;stroke-linecap:round;stroke-linejoin:round;stroke-dasharray:none;stroke-opacity:1"
         d="m 0.8734582,-268.25952 26.6470468,-0.12511 9.632971,9.13256 113.969294,0.1251 19.39104,17.7647 25.89643,0.12511 4.50372,-4.25353 9.25766,-0.50041 4.87904,4.87904 11.63462,0.1251 26.77215,24.52029 h 14.51201"
         id="path209" /><path
         style="fill:none;fill-opacity:1;stroke:url(#linearGradient724);stroke-width:0.564999;stroke-linecap:round;stroke-linejoin:round;stroke-dasharray:none;stroke-opacity:1"
         d="m 270.4715,-218.71854 -14.6371,0.25021 -28.71125,-27.02236 -0.0938,-2.43951 -9.47659,-9.32021 0.1251,-24.6454 -9.63297,-8.63214 -21.01739,0.37531 -7.0058,-6.88069 -95.203758,-0.37531 -9.632971,9.00745 -35.998533,-0.28148 -2.283138,2.15803 H 8.5985998 l -7.85024511,-7.00579"
         id="path210" /><path
         style="fill:none;fill-opacity:1;stroke:#d5ebfe;stroke-width:0.564999;stroke-linecap:round;stroke-linejoin:round;stroke-dasharray:none;stroke-opacity:1"
         d="m 212.29838,-318.17582 43.28581,41.15905 -0.37531,4.37862 9.50787,9.25766 h 3.25269 l 8.63214,8.88235 -0.12509,13.51118 2.65844,1.97038 -0.0313,9.16383"
         id="path216" /><path
         style="fill:none;fill-opacity:1;stroke:#d5ebfe;stroke-width:0.564999;stroke-linecap:round;stroke-linejoin:round;stroke-dasharray:none;stroke-opacity:1"
         d="m 245.32571,-318.05072 10.38359,9.38276 -0.12511,13.51118 9.63297,8.75725 0.1251,5.12924 21.14251,20.01656 -0.50043,4.50373 7.50623,6.63048 -0.37531,24.7705"
         id="path219" /><path
         style="fill:none;fill-opacity:1;stroke:#d5ebfe;stroke-width:0.564999;stroke-linecap:round;stroke-linejoin:round;stroke-dasharray:none;stroke-opacity:1"
         d="m 295.99263,-225.22392 0.12509,-27.27256 -7.5062,-6.50538 v -4.75394 l -16.63877,-16.01325 -0.1251,-22.39352 -5.00414,-4.75394 0.25022,-11.13421"
         id="path226" /><path
         style="fill:none;fill-opacity:1;stroke:#d5ebfe;stroke-width:0.564999;stroke-linecap:round;stroke-linejoin:round;stroke-dasharray:none;stroke-opacity:1"
         d="m 269.72088,-318.17582 -0.1251,9.25766 5.12924,5.12924 -0.5004,22.64373 16.63877,15.26263 -0.12512,4.37863 7.63132,7.3811 -0.25021,28.89891"
         id="path227" /><path
         style="fill:none;fill-opacity:1;stroke:#d5ebfe;stroke-width:0.564999;stroke-linecap:round;stroke-linejoin:round;stroke-dasharray:none;stroke-opacity:1"
         d="m 300.24615,-225.59923 0.12509,-35.7796 -23.51944,-22.39353 -0.50044,-23.01904 -4.6288,-3.75311 0.12509,-7.63131"
         id="path228" /><path
         style="fill:none;fill-opacity:1;stroke:#d5ebfe;stroke-width:0.564999;stroke-linecap:round;stroke-linejoin:round;stroke-dasharray:none;stroke-opacity:1"
         d="m 274.22462,-318.05072 v 5.00414 l 4.87905,4.00331 v 23.01905 l 11.88481,11.38442 h 7.63133 l 6.25517,6.25517 -0.12512,4.37862 7.63132,7.25601 -0.25021,31.27588"
         id="path229" /><path
         style="fill:none;fill-opacity:1;stroke:#d5ebfe;stroke-width:0.564999;stroke-linecap:round;stroke-linejoin:round;stroke-dasharray:none;stroke-opacity:1"
         d="m 305.06262,-225.34902 0.12513,-20.57953"
         id="path230" /><path
         style="fill:none;fill-opacity:1;stroke:#d5ebfe;stroke-width:0.564999;stroke-linecap:round;stroke-linejoin:round;stroke-dasharray:none;stroke-opacity:1"
         d="m 307.56471,-225.16137 v -31.96394 l -12.88566,-11.94739"
         id="path231" /><path
         style="fill:none;fill-opacity:1;stroke:#d5ebfe;stroke-width:0.564999;stroke-linecap:round;stroke-linejoin:round;stroke-dasharray:none;stroke-opacity:1"
         d="m 297.86919,-272.38794 4.62883,4.19097 0.0626,4.44117 7.3811,6.81814 v 31.83885"
         id="path232" /><path
         style="fill:none;fill-opacity:1;stroke:#d5ebfe;stroke-width:0.564999;stroke-linecap:round;stroke-linejoin:round;stroke-dasharray:none;stroke-opacity:1"
         d="m 314.75815,-225.16137 -0.18764,-31.96394 -7.44366,-7.256 0.31274,-4.31608 -4.69138,-3.81565 -0.1251,-7.1309 2.56464,-2.06421 0.0625,-2.43952"
         id="path233" /><path
         style="fill:none;fill-opacity:1;stroke:#d5ebfe;stroke-width:0.564999;stroke-linecap:round;stroke-linejoin:round;stroke-dasharray:none;stroke-opacity:1"
         d="m 316.82237,-225.28647 0.25019,-31.77629 -7.13089,-6.56793 0.0625,-22.51864 -4.81647,-4.12841 -12.63547,11.50952 c -1.52025,0.14187 -2.49684,-0.35875 -2.18932,-2.37697 l 11.94739,-11.07166 c -0.0766,-2.55627 -1.42755,-2.19988 -2.62718,-2.18931 l -11.75972,10.94656 c -1.31954,-0.0506 -2.73786,0.0271 -2.43952,-2.12676 l 11.88485,-11.38442 c 0.0944,-2.08016 -1.18462,-2.17636 -2.56463,-2.12676 l -11.38442,11.07166 c -1.06459,-0.0629 -2.41721,0.49135 -2.37696,-1.9391 l 9.82062,-9.75808 -0.12512,-4.25352 -14.512,-14.13669"
         id="path234" /><path
         style="fill:none;fill-opacity:1;stroke:#d5ebfe;stroke-width:0.564999;stroke-linecap:round;stroke-linejoin:round;stroke-dasharray:none;stroke-opacity:1"
         d="m 281.04277,-318.05072 35.9047,34.46602 -0.31276,17.70214 16.70132,15.63794 0.25021,9.50787 2.56461,1.87655 -0.25019,13.44863"
         id="path235" /><path
         style="fill:none;fill-opacity:1;stroke:#d5ebfe;stroke-width:0.564999;stroke-linecap:round;stroke-linejoin:round;stroke-dasharray:none;stroke-opacity:1"
         d="m 285.73415,-318.05072 36.15492,34.71622 -0.12513,17.38939 14.19927,13.63628 v 9.07001"
         id="path236" /><path
         style="fill:none;fill-opacity:1;stroke:#d5ebfe;stroke-width:0.564999;stroke-linecap:round;stroke-linejoin:round;stroke-dasharray:none;stroke-opacity:1"
         d="m 330.42735,-318.05072 8.19431,7.53749 -0.25022,29.11784 -4.7852,4.31607 -0.25021,6.44283 5.03541,4.94159 -0.12509,31.33843"
         id="path251" /><path
         style="fill:none;fill-opacity:1;stroke:#d5ebfe;stroke-width:0.564999;stroke-linecap:round;stroke-linejoin:round;stroke-dasharray:none;stroke-opacity:1"
         d="m 340.59204,-306.29099 v 71.93451"
         id="path253" /><path
         style="fill:none;fill-opacity:1;stroke:#d5ebfe;stroke-width:0.564999;stroke-linecap:round;stroke-linejoin:round;stroke-dasharray:none;stroke-opacity:1"
         d="m 343.0941,-234.38775 -0.0938,-6.88069 4.87902,-4.535 -0.21892,-38.2504 -4.78523,-4.62883 0.12513,-11.00911 4.81647,-4.78521 0.0625,-10.884 2.40829,-2.68973"
         id="path254" /><path
         style="fill:none;fill-opacity:1;stroke:#d5ebfe;stroke-width:0.564999;stroke-linecap:round;stroke-linejoin:round;stroke-dasharray:none;stroke-opacity:1"
         d="m 345.28342,-225.19264 0.0313,-13.69884 5.03542,-4.75393 -0.37531,-40.1895 36.28001,-34.30964"
         id="path290" /><path
         style="fill:none;fill-opacity:1;stroke:#c8d1da;stroke-width:0.564999;stroke-linecap:round;stroke-linejoin:round;stroke-dasharray:none;stroke-opacity:1"
         d="m 354.83775,-221.00167 19.23465,-0.0313 4.7852,-4.37863 v -74.34275 l 16.54495,-15.57539 -0.0313,-2.78355"
         id="path292" /><path
         style="fill:none;fill-opacity:1;stroke:url(#linearGradient733);stroke-width:0.564999;stroke-linecap:round;stroke-linejoin:round;stroke-dasharray:none;stroke-opacity:1"
         d="m 354.5945,-218.84111 26.22886,0.0885 2.47693,-2.12307 -0.13272,-4.90962 35.69425,-33.39423 11.89807,-0.0885 23.53077,-22.20384 0.0442,-4.64423 6.94425,-6.50193 0.53076,-0.0885 10.48268,10.12885 2.52116,-2.34423 -22.02693,-21.00962 c -0.008,-1.5084 0.68634,-2.20669 2.21155,-1.94615 l 22.29231,20.7 c 1.72962,0.43702 2.63381,-0.15774 2.47692,-2.07885 l -22.02691,-20.74423 c -0.09,-1.03013 -0.34515,-2.40444 2.38847,-2.47692 l 22.02693,20.87692 c 2.02938,0.31537 2.32831,-0.71515 2.25576,-2.03461 l -22.20383,-20.92116 c -0.1591,-2.31114 1.13487,-2.38678 2.47692,-2.38846 l 22.11538,20.96538 c 2.3318,0.38507 2.35889,-0.95839 2.38845,-2.3 l -21.09806,-19.94807"
         id="path299" /><path
         style="fill:none;fill-opacity:1;stroke:url(#linearGradient737);stroke-width:0.564999;stroke-linecap:round;stroke-linejoin:round;stroke-dasharray:none"
         d="m 621.51196,-248.24296 -67.18059,0.50041 -10.00829,-9.13255 -101.33383,0.1251 -5.37945,4.37862 -16.38856,0.12511 -12.00994,11.63462 0.25022,23.89477 -9.8832,9.63297 -0.12509,2.12676 -28.01559,26.58764 -16.77146,-0.0581"
         id="path302" /><path
         style="fill:none;fill-opacity:1;stroke:url(#linearGradient738);stroke-width:0.564999;stroke-linecap:round;stroke-linejoin:round;stroke-dasharray:none"
         d="m 347.54287,-176.02919 26.17569,-0.0733 28.65628,-26.83784 -0.1251,-2.50207 9.38277,-8.78853 0.0938,-24.45772 9.50788,-9.10128 21.23632,-0.0626 7.25601,-6.84942 94.67208,0.0625 9.88317,8.85107 35.46686,-0.0313 2.5959,2.34569 h 29.08654"
         id="path303" /><path
         style="fill:none;fill-opacity:1;stroke:url(#linearGradient739);stroke-width:0.564999;stroke-linecap:round;stroke-linejoin:round;stroke-dasharray:none"
         d="m 349.78713,-173.93148 25.89644,0.37531 26.89725,-24.64539 11.50953,-0.50041 4.62881,-4.37863 9.63297,-0.1251 25.77132,-24.27008 14.3869,-0.1251 9.88319,11.25931 113.9693,-0.25021 9.38277,-8.86671 19.26592,-0.0469"
         id="path305" /><path
         style="fill:none;fill-opacity:1;stroke:url(#linearGradient740);stroke-width:0.564999;stroke-linecap:round;stroke-linejoin:round;stroke-dasharray:none"
         d="m 620.88232,-202.84904 -19.15884,-0.004 -9.23554,-8.98468 -118.0977,0.37531 -18.51533,18.0149 -54.04472,-0.62551 -1.75143,1.87655 -0.12512,2.75228 -19.26593,17.38938 -33.27754,0.50042"
         id="path314" /><path
         style="fill:none;fill-opacity:1;stroke:url(#linearGradient741);stroke-width:0.564999;stroke-linecap:round;stroke-linejoin:round;stroke-dasharray:none"
         d="m 347.3849,-169.30264 21.40767,-0.17693 2.74233,2.38846 9.19999,-0.0442 26.27307,-24.5923 49.89232,-0.0885 18.75385,-17.95769 43.21344,0.0442 9.46539,9.24424 23.61925,-0.35385 13.22498,13.62308 8.49231,-0.22116 3.67115,-4.6 18.53271,-0.30961 20.52307,19.06346 0.0442,6.05961 -4.82115,5.04231 v 11.19039 l 4.4673,4.06923 -0.0885,5.30769 -4.55578,4.11346 -4.8654,-0.0885 -11.58846,11.01346 0.17693,11.85385 11.72115,10.83653 14.1981,-0.0442"
         id="path315" /><path
         style="fill:none;fill-opacity:1;stroke:url(#linearGradient747);stroke-width:0.564999;stroke-linecap:round;stroke-linejoin:round;stroke-dasharray:none"
         d="m 621.38684,-90.17468 -9.6955,-0.25021 -22.45609,-20.51697 0.50041,-31.46354 14.69967,-13.07331 0.0626,-20.20422 -11.69718,-11.57207 -5.62967,-0.12511 -4.56626,4.25352 -31.08822,0.43787 -11.8223,-11.07167 h -9.25764 l -12.26016,-11.69717 -35.96724,0.2502 -9.13257,8.88235 h -5.25434 l -8.9449,9.07001 -18.32766,-0.18766 -2.93994,2.50207 -27.83554,0.18766 -5.12924,3.94076 -0.1251,4.75393 -4.81647,4.62883 -4.50374,-0.37531 -9.82062,9.19511 h -20.45443 l -3.12759,-2.00166 -14.32436,-0.31276"
         id="path320" /><path
         style="fill:none;fill-opacity:1;stroke:url(#linearGradient742);stroke-width:0.564999;stroke-linecap:round;stroke-linejoin:round;stroke-dasharray:none"
         d="m 349.78713,-167.05079 19.3285,-0.2502 2.31442,2.68972 11.44695,-0.18765 10.13339,-9.07001 4.50374,0.18766 4.94159,-4.75394 -0.18767,-4.56627 4.62883,-4.44118 h 28.83636 l 2.31442,-2.31441 18.64042,0.1251 9.82062,-8.88235 4.12843,0.0626 10.19593,-8.88235 37.78125,-0.1251 12.00994,11.25932 h 9.19512 l 11.88482,10.94655 h 28.96147 l 3.81567,-4.31607 11.07164,0.25021 12.51035,13.07331 1.37615,22.64374 -17.57704,15.82559 0.56296,25.20836 13.76137,13.44863 7.38111,-0.43786 2.75228,2.43951 4.87905,-0.0626"
         id="path321" /><path
         style="fill:none;fill-opacity:1;stroke:url(#linearGradient744);stroke-width:0.564999;stroke-linecap:round;stroke-linejoin:round;stroke-dasharray:none;stroke-opacity:1"
         d="m 521.1164,-180.62452 -22.51864,-0.0625 -8.50704,-7.75642 -3.87821,-0.2502 -5.87986,5.62965 -66.30487,0.25021 -7.25599,7.06835 v 1.6889 l -4.62883,4.69138 -5.06669,-0.0625 -9.00745,9.00745 -37.96893,-0.0625"
         id="path322" /><path
         style="fill:none;fill-opacity:1;stroke:url(#linearGradient722);stroke-width:0.564999;stroke-linecap:round;stroke-linejoin:round;stroke-dasharray:none;stroke-opacity:1"
         d="m 267.28296,-173.94688 -19.06346,0.1327 -4.86538,4.33461 h -2.3 l -7.07692,6.81154 0.0885,2.47692 -14.19808,13.09231 -54.44808,0.17693 -16.76346,13.44615 -44.98269,0.17692 -2.07885,-2.12307 -71.919223,-0.22116 -8.934614,-8.84615 H 4.3752778 l -3.58269234,-3.22885"
         id="path327" /><path
         style="fill:none;fill-opacity:1;stroke:url(#linearGradient721);stroke-width:0.564999;stroke-linecap:round;stroke-linejoin:round;stroke-dasharray:none;stroke-opacity:1"
         d="m 0.83681623,-144.88726 2.83076917,2.78654 16.5423076,-0.17692 9.465384,8.84615 71.211533,0.0885 2.60962,2.07885 45.46923,-0.0885 16.45384,-13.40193 53.96154,-0.0885 29.01539,-26.84807 21.54038,0.0885"
         id="path328" /><path
         style="fill:none;fill-opacity:1;stroke:url(#linearGradient719);stroke-width:0.564999;stroke-linecap:round;stroke-linejoin:round;stroke-dasharray:none;stroke-opacity:1"
         d="m 274.62528,-169.30264 -26.22885,-0.0442 -28.75,26.75961 -54.13847,0.0885 -16.71923,13.75577 -118.759605,-0.26538 -9.951924,-8.80193 -19.24038477,-0.0442"
         id="path329" /><path
         style="fill:none;fill-opacity:1;stroke:url(#linearGradient718);stroke-width:0.564999;stroke-linecap:round;stroke-linejoin:round;stroke-dasharray:none;stroke-opacity:1"
         d="m 0.96950854,-115.42957 19.37307746,0.0442 9.553846,-9.15578 114.248068,0.0442 9.15577,11.32308 14.33077,-0.0442 26.36154,-24.94615 9.2,-0.0442 4.55577,-2.38846 12.11923,0.22115 28.61731,-26.80385 23.4423,0.0442"
         id="path334" /><path
         style="fill:none;fill-opacity:1;stroke:url(#linearGradient717);stroke-width:0.564999;stroke-linecap:round;stroke-linejoin:round;stroke-dasharray:none;stroke-opacity:1"
         d="m 274.49259,-164.96803 -25.83078,0.22116 -28.70577,26.84807 v 2.07885 l -9.73077,8.93461 0.1327,25.03462 -9.37693,8.75769 -21.49615,0.13269 -7.16539,6.76731 -93.10576,-0.13269 -11.013461,-8.71346 -36.490385,0.0442 -1.990384,-2.3 -28.88269377,-0.0885"
         id="path335" /><path
         style="fill:none;fill-opacity:1;stroke:url(#linearGradient715);stroke-width:0.564999;stroke-linecap:round;stroke-linejoin:round;stroke-dasharray:none;stroke-opacity:1"
         d="m 0.92527777,-92.69495 67.58461723,-0.22116 11.853844,9.11154 99.121151,-0.13269 4.68846,-4.29038 16.71923,-0.53077 11.89808,-11.5 -0.22116,-24.2827 9.59808,-8.53653 0.0442,-5.13077 26.27308,-24.59231 18.97499,0.0885"
         id="path336" /><path
         style="fill:none;fill-opacity:1;stroke:url(#linearGradient713);stroke-width:0.564999;stroke-linecap:round;stroke-linejoin:round;stroke-dasharray:none"
         d="m 267.68105,-160.41226 -18.88655,-0.0442 -5.08654,4.33462 0.13269,2.25577 -7.25384,7.07692 -2.52116,-0.22115 -9.0673,8.97884 -0.0885,6.85577 -9.68654,9.2 0.26539,24.37116 -14.59615,13.57884 -13.88847,-0.17692 -4.82115,4.68846 -31.09423,-0.0885 -2.07885,-2.12308 -71.123062,0.0442 -9.775002,-9.02307 H 1.1464316"
         id="path337" /><path
         style="fill:none;fill-opacity:1;stroke:#d5ebfe;stroke-width:0.564999;stroke-linecap:round;stroke-linejoin:round;stroke-dasharray:none;stroke-opacity:1"
         d="m 196.70782,-53.49344 67.9312,-64.11555 -0.1251,-4.75394 12.0725,-11.32186 -0.25022,-13.44863"
         id="path346" /><path
         style="fill:none;fill-opacity:1;stroke:#d5ebfe;stroke-width:0.564999;stroke-linecap:round;stroke-linejoin:round;stroke-dasharray:none;stroke-opacity:1"
         d="m 279.04109,-147.15933 -0.25019,18.20256 -79.56584,75.49996"
         id="path347" /><path
         style="fill:none;fill-opacity:1;stroke:#d5ebfe;stroke-width:0.564999;stroke-linecap:round;stroke-linejoin:round;stroke-dasharray:none;stroke-opacity:1"
         d="m 203.91645,-53.45681 25.64621,-24.08242 1.93911,0.0625 2.56462,-2.37696 -0.1251,-4.50373 14.19925,-13.19842 6.63048,-0.0626 2.93994,-2.50207 0.1251,-6.44283 23.64457,-22.51863 -0.12512,-17.95236"
         id="path348" /><path
         style="fill:none;fill-opacity:1;stroke:#d5ebfe;stroke-width:0.564999;stroke-linecap:round;stroke-linejoin:round;stroke-dasharray:none;stroke-opacity:1"
         d="m 283.92014,-147.03423 -0.0625,18.01491 -23.76967,22.58118 0.0626,6.31773 -4.75393,5.12924 -7.19345,-0.43786 -12.38525,11.63463 0.81317,4.06586 -5.00414,4.62883 -2.56462,0.12511 -22.45608,21.58034"
         id="path349" /><path
         style="fill:none;fill-opacity:1;stroke:#d5ebfe;stroke-width:0.564999;stroke-linecap:round;stroke-linejoin:round;stroke-dasharray:none;stroke-opacity:1"
         d="m 209.10824,-53.64446 20.32932,-19.39104 2.31442,0.1251 7.19345,-7.00579 -0.25021,-4.12842 10.38359,-9.38276 5.87987,0.37531 7.69386,-7.0058 -0.2502,-6.63049 16.76387,-15.82559 4.69138,0.25021 2.0642,-2.31442 0.37531,-22.64373"
         id="path350" /><path
         style="fill:none;fill-opacity:1;stroke:#d5ebfe;stroke-width:0.564999;stroke-linecap:round;stroke-linejoin:round;stroke-dasharray:none;stroke-opacity:1"
         d="m 288.67407,-147.03423 v 22.51864 l -4.75393,4.75393 -4.9416,-0.31276 -14.01158,13.63628 -0.12511,6.69304 -9.57041,9.19511 -4.62883,-0.18766 -7.0058,6.56794 -0.31276,2.75227 -11.50952,10.75891 -2.56462,-0.0626 -18.07746,17.13919"
         id="path351" /><path
         style="fill:none;fill-opacity:1;stroke:#d5ebfe;stroke-width:0.564999;stroke-linecap:round;stroke-linejoin:round;stroke-dasharray:none;stroke-opacity:1"
         d="m 213.79962,-53.64446 15.63794,-14.88732 2.68973,0.12511 13.69883,-13.69884 2.37697,0.25021 28.33594,-26.9598 0.1251,-2.25187 14.44945,-13.76138 -0.25019,-22.45608"
         id="path352" /><path
         style="fill:none;fill-opacity:1;stroke:#d5ebfe;stroke-width:0.564999;stroke-linecap:round;stroke-linejoin:round;stroke-dasharray:none;stroke-opacity:1"
         d="m 293.3029,-147.09678 0.1251,22.45608 -11.94737,11.38442 -0.25022,2.12676 -33.08987,31.58864 -0.18766,8.75724 9.32021,9.13256 0.18766,8.25682"
         id="path353" /><path
         style="fill:none;fill-opacity:1;stroke:#d5ebfe;stroke-width:0.564999;stroke-linecap:round;stroke-linejoin:round;stroke-dasharray:none;stroke-opacity:1"
         d="m 260.27558,-53.39426 0.0626,-8.38192 -10.19594,-9.32022 0.68807,-8.9449 35.4043,-33.27753 -0.25022,-2.43952 9.88319,-9.07 -0.25021,-22.33098"
         id="path364" /><path
         style="fill:none;fill-opacity:1;stroke:#d5ebfe;stroke-width:0.564999;stroke-linecap:round;stroke-linejoin:round;stroke-dasharray:none;stroke-opacity:1"
         d="m 298.18195,-147.03423 -0.0626,22.58119 -9.63295,8.9449 0.31273,15.38773 -2.93991,2.56462 -11.88485,0.18766 -20.95483,19.89145 0.37531,4.44118 8.88235,8.9449"
         id="path365" /><path
         style="fill:none;fill-opacity:1;stroke:#d5ebfe;stroke-width:0.564999;stroke-linecap:round;stroke-linejoin:round;stroke-dasharray:none;stroke-opacity:1"
         d="m 264.59165,-53.5819 0.1251,-10.75891 -9.13256,-8.75724 -0.1251,-4.19097 19.01574,-18.32766 11.63463,0.2502 4.69138,-4.44117 -0.0626,-15.8256 9.7581,-9.32021 -0.12513,-22.20587"
         id="path366" /><path
         style="fill:none;fill-opacity:1;stroke:#d5ebfe;stroke-width:0.564999;stroke-linecap:round;stroke-linejoin:round;stroke-dasharray:none;stroke-opacity:1"
         d="m 302.93588,-147.03423 -0.25022,22.76884 -9.50785,9.13256 0.18764,15.51283 -7.13089,6.63049 -5.12924,0.18765 -9.19512,8.75725 -0.12509,11.00911 -3.81567,3.69055"
         id="path367" /><path
         style="fill:none;fill-opacity:1;stroke:#d5ebfe;stroke-width:0.564999;stroke-linecap:round;stroke-linejoin:round;stroke-dasharray:none;stroke-opacity:1"
         d="m 268.4073,-67.03053 6.25518,-5.75476 -0.43786,-11.44697 7.63132,-7.0058 3.69054,0.31276 10.25848,-9.00746 -0.18764,-15.51283 9.4453,-9.07 v -22.51864"
         id="path368" /><path
         style="fill:none;fill-opacity:1;stroke:#d5ebfe;stroke-width:0.564999;stroke-linecap:round;stroke-linejoin:round;stroke-dasharray:none;stroke-opacity:1"
         d="m 307.50216,-146.97167 0.18764,22.45608 -9.82061,9.13255 0.12509,15.8256 -11.94739,11.00911 -4.56626,-0.18766 -4.87905,4.81648 0.25022,10.88401 -9.69553,9.25766 v 10.32103"
         id="path369" /><path
         style="fill:none;fill-opacity:1;stroke:#d5ebfe;stroke-width:0.564999;stroke-linecap:round;stroke-linejoin:round;stroke-dasharray:none;stroke-opacity:1"
         d="m 297.68152,-53.33171 -0.0626,-1.43868 5.25436,-4.44117 -0.12512,-4.81649 -2.37697,-2.12676 0.0626,-49.35333 c 0,0 14.13672,-12.38525 14.19926,-13.57373 0.0625,-1.18849 -0.10297,-18.12549 -0.10297,-18.12549"
         id="path370" /><path
         style="fill:none;fill-opacity:1;stroke:#d5ebfe;stroke-width:0.564999;stroke-linecap:round;stroke-linejoin:round;stroke-dasharray:none;stroke-opacity:1"
         d="m 317.02453,-147.28823 -0.20216,18.33146 -14.2618,13.44863 -0.1251,47.28912 2.87737,2.12676 -0.18767,6.56794 -4.75393,4.31607 v 1.75144"
         id="path371" /><path
         style="fill:none;fill-opacity:1;stroke:#d5ebfe;stroke-width:0.564999;stroke-linecap:round;stroke-linejoin:round;stroke-dasharray:none;stroke-opacity:1"
         d="m 302.62311,-53.33171 -0.0625,-1.75144 10.00828,-8.56959 -0.56298,-4.94159 -7.3811,-6.56793 0.37531,-13.44863 2.50208,-2.18931 -0.0626,-20.26677 -2.50206,-2.18931 0.31276,-2.81483 6.69304,-6.50538 5.06669,0.18766 4.75392,-4.50373 -0.10297,-20.51004"
         id="path372" /><path
         style="fill:none;fill-opacity:1;stroke:#d5ebfe;stroke-width:0.564999;stroke-linecap:round;stroke-linejoin:round;stroke-dasharray:none;stroke-opacity:1"
         d="m 324.11122,-147.24465 -0.0329,20.35209 -7.19344,6.94324 -4.87905,-0.1251 -4.50371,4.25352 -0.0626,2.50207 2.50208,2.56462 -0.18767,20.20422 -2.12674,1.87655 -0.1251,11.38442 6.75558,7.1309 0.31277,8.50704 -9.13257,8.13173"
         id="path373" /><path
         style="fill:none;fill-opacity:1;stroke:#d5ebfe;stroke-width:0.564999;stroke-linecap:round;stroke-linejoin:round;stroke-dasharray:none;stroke-opacity:1"
         d="m 310.25444,-53.39426 6.63048,-6.25516 0.1251,-13.26098 -5.12924,-4.75393 0.12509,-33.52774 14.26181,-13.44863 0.10673,-22.60395"
         id="path374" /><path
         style="fill:none;fill-opacity:1;stroke:#d5ebfe;stroke-width:0.564999;stroke-linecap:round;stroke-linejoin:round;stroke-dasharray:none;stroke-opacity:1"
         d="m 328.8026,-147.21874 -0.0329,25.08011 -12.26013,11.19677 0.31276,33.8405 2.43952,2.31441 -0.14793,17.57801 -3.65584,3.87376"
         id="path375" /><path
         style="fill:none;fill-opacity:1;stroke:#d5ebfe;stroke-width:0.564999;stroke-linecap:round;stroke-linejoin:round;stroke-dasharray:none;stroke-opacity:1"
         d="m 331.1467,-147.15933 0.12513,25.27091 11.5095,11.44697 0.43786,33.15243 -2.5646,2.50207 0.0625,21.39269"
         id="path376" /><path
         style="fill:none;fill-opacity:1;stroke:#d5ebfe;stroke-width:0.564999;stroke-linecap:round;stroke-linejoin:round;stroke-dasharray:none;stroke-opacity:1"
         d="m 333.52367,-147.09678 -0.37531,22.89394 12.07251,11.13422 v 4.44117 l 12.13504,11.19676 -0.56299,24.33264 -4.37861,4.75393 -0.0625,13.38608 1.68889,1.6889"
         id="path378" /><path
         style="fill:none;fill-opacity:1;stroke:#d5ebfe;stroke-width:0.564999;stroke-linecap:round;stroke-linejoin:round;stroke-dasharray:none;stroke-opacity:1"
         d="m 358.54439,-53.51935 -3.62802,-3.62801 -0.37531,-9.50786 5.00414,-4.25352 -0.12509,-28.77381 -11.63463,-11.13421 -0.25022,-4.62883 -11.75972,-11.38442 0.0297,-20.38114"
         id="path379" /><path
         style="fill:none;fill-opacity:1;stroke:#d5ebfe;stroke-width:0.564999;stroke-linecap:round;stroke-linejoin:round;stroke-dasharray:none;stroke-opacity:1"
         d="m 338.25171,-147.17071 -0.16176,18.4016 11.69718,10.69635 -0.1251,5.12924 12.82311,10.94656 -0.68807,33.77794 -4.56629,4.06587 -0.25019,4.69138 6.63049,6.00496"
         id="path380" /><path
         style="fill:none;fill-opacity:1;stroke:url(#linearGradient225);stroke-width:0.564999;stroke-linecap:round;stroke-linejoin:round;stroke-dasharray:none"
         d="m 340.46488,-147.08389 0.25714,16.16426 11.50953,10.82146 45.28746,0.25021 26.02153,24.89559 -0.25021,6.31773 37.09321,35.34173"
         id="path381" /><path
         style="fill:none;fill-opacity:1;stroke:url(#linearGradient227);stroke-width:0.564999;stroke-linecap:round;stroke-linejoin:round;stroke-dasharray:none;stroke-opacity:1"
         d="m 465.07003,-53.51935 -39.47017,-37.2183 0.18767,-7.00579 -26.14666,-24.52029 -44.66193,0.0625 -11.88484,-11.32187 -0.11058,-13.61796"
         id="path382" /></g></g></svg>
